<svg xmlns="http://www.w3.org/2000/svg" viewBox="0 0 220 50" role="img" aria-label="Save to Google Wallet">
  <title>Save to Google Wallet</title>
  <rect width="220" height="50" rx="25" ry="25" fill="#000"/>
  <!-- Google "G" logo, four-color brand mark, simplified outline -->
  <g transform="translate(20,12)">
    <circle cx="13" cy="13" r="13" fill="#fff"/>
    <path d="M22.6 13.3c0-.7-.1-1.4-.2-2H13v3.8h5.4c-.2 1.3-.9 2.4-2 3.1v2.6h3.3c1.9-1.8 3-4.4 3-7.5z" fill="#4285F4"/>
    <path d="M13 23c2.7 0 5-.9 6.7-2.4l-3.3-2.6c-.9.6-2.1 1-3.4 1-2.6 0-4.8-1.8-5.6-4.1H4v2.6C5.7 20.9 9.1 23 13 23z" fill="#34A853"/>
    <path d="M7.4 14.9c-.2-.6-.3-1.3-.3-1.9 0-.7.1-1.3.3-1.9V8.5H4c-.7 1.3-1.1 2.9-1.1 4.5s.4 3.2 1.1 4.5l3.4-2.6z" fill="#FBBC05"/>
    <path d="M13 6.6c1.5 0 2.8.5 3.9 1.5l2.9-2.9C18 3.5 15.7 2.6 13 2.6c-3.9 0-7.3 2.1-9 5.4L7.4 11C8.2 8.7 10.4 6.6 13 6.6z" fill="#EA4335"/>
  </g>
  <!-- "Save to Google Wallet" text -->
  <text x="60" y="20" font-family="-apple-system, BlinkMacSystemFont, 'Roboto', 'Helvetica Neue', Helvetica, Arial, sans-serif"
        font-size="9" font-weight="500" fill="#fff" letter-spacing="0.2">Save to</text>
  <text x="60" y="36" font-family="-apple-system, BlinkMacSystemFont, 'Roboto', 'Helvetica Neue', Helvetica, Arial, sans-serif"
        font-size="14" font-weight="600" fill="#fff" letter-spacing="-0.1">Google Wallet</text>
</svg>
